<?xml version="1.0" standalone="no"?>
<!DOCTYPE svg PUBLIC "-//W3C//DTD SVG 20010904//EN"
 "http://www.w3.org/TR/2001/REC-SVG-20010904/DTD/svg10.dtd">
<svg version="1.0" xmlns="http://www.w3.org/2000/svg"
 width="1095.000000pt" height="1280.000000pt" viewBox="0 0 1095.000000 1280.000000"
 preserveAspectRatio="xMidYMid meet">
<metadata>
Created by potrace 1.15, written by Peter Selinger 2001-2017
</metadata>
<g transform="translate(0.000000,1280.000000) scale(0.100000,-0.100000)"
fill="#000000" stroke="none">
<path d="M7280 12785 c-60 -17 -120 -50 -171 -92 -44 -38 -104 -132 -118 -188
-6 -25 -15 -45 -19 -45 -5 0 -57 6 -118 14 -451 59 -978 44 -1394 -40 -868
-173 -1579 -644 -2056 -1359 -150 -225 -283 -513 -318 -686 -5 -23 -12 -28
-53 -34 -116 -17 -251 -90 -323 -174 -47 -53 -91 -142 -111 -221 -20 -80 -18
-278 5 -367 32 -129 111 -227 204 -253 53 -14 169 -12 225 5 37 11 49 11 51 2
2 -7 18 -72 35 -145 81 -339 222 -659 431 -972 114 -170 239 -319 420 -500
238 -239 461 -418 748 -603 l104 -66 -104 -52 c-402 -202 -651 -389 -803 -603
-27 -38 -93 -156 -146 -263 -113 -223 -111 -216 -244 -868 -124 -607 -200
-883 -295 -1078 -39 -81 -53 -98 -159 -195 -241 -223 -323 -312 -369 -400 -44
-84 -72 -192 -72 -277 0 -63 27 -209 54 -289 l24 -71 -82 -85 c-147 -156 -279
-361 -478 -749 -126 -245 -281 -512 -374 -648 -229 -330 -634 -585 -1414 -888
-209 -81 -316 -133 -345 -165 -19 -21 -19 -22 -1 -35 30 -23 121 -28 301 -19
392 20 486 11 653 -57 67 -28 92 -32 192 -36 111 -5 224 5 340 28 83 16 298
13 450 -6 201 -25 777 -22 903 5 113 25 213 73 300 145 106 87 152 154 187
265 65 213 135 514 170 736 21 127 30 271 30 449 0 234 -26 404 -85 556 -31
77 -75 235 -75 267 0 13 6 22 15 22 8 0 57 22 110 49 52 27 95 45 95 41 0 -4
-7 -27 -15 -50 -23 -65 -20 -255 4 -339 46 -153 63 -271 59 -404 -3 -118 -2
-127 16 -127 27 0 113 46 173 92 135 104 234 300 264 524 16 118 6 361 -16
429 -24 71 -71 142 -106 157 -16 7 -28 16 -27 20 2 3 41 46 88 95 104 108 221
253 285 351 85 132 174 343 222 522 6 23 7 -67 5 -253 -6 -416 20 -777 79
-1090 19 -104 20 -124 10 -440 -12 -358 -26 -492 -66 -645 -46 -175 -148 -351
-262 -452 -26 -23 -112 -85 -190 -136 -157 -103 -252 -190 -298 -274 -27 -49
-30 -64 -30 -140 0 -117 29 -176 144 -290 140 -139 199 -172 411 -229 309 -85
593 -87 826 -7 213 73 419 217 579 406 306 360 462 700 525 1143 15 109 54
538 61 674 2 44 22 -69 74 -427 93 -640 130 -813 235 -1125 72 -211 109 -282
197 -376 216 -228 554 -360 1113 -434 228 -30 553 15 791 111 l86 34 48 -21
c136 -60 338 -90 480 -71 110 14 135 27 163 82 32 65 29 102 -14 149 -37 42
-81 61 -191 82 -61 11 -63 12 -57 38 13 53 57 181 63 181 3 0 20 -22 38 -49
50 -76 199 -246 241 -273 48 -32 96 -48 142 -48 120 0 431 155 478 239 41 72
22 151 -46 193 -46 28 -103 19 -204 -33 -59 -30 -87 -39 -107 -34 -50 11 -118
102 -135 180 -6 29 -4 31 62 62 137 64 237 171 320 342 l46 93 24 -28 c63 -77
184 -191 247 -234 82 -55 145 -88 249 -130 74 -29 77 -29 116 -14 78 31 150
144 150 233 -1 50 -33 116 -67 137 -203 126 -339 250 -439 400 -34 50 -98 166
-143 259 -45 92 -95 188 -111 212 -30 44 -76 142 -69 146 2 1 40 20 83 41 88
44 187 130 235 204 17 26 42 79 57 117 23 59 27 86 28 170 0 57 -5 116 -12
136 -12 35 -12 38 19 70 42 45 79 125 79 172 0 97 -89 198 -195 221 -41 9
-108 -16 -161 -60 -42 -34 -44 -34 -73 -20 -81 42 -193 66 -311 66 l-89 0 16
43 c24 65 29 265 9 365 -22 110 -41 165 -145 431 -50 127 -91 232 -91 235 0 2
9 6 19 9 18 4 15 15 -34 144 -29 77 -123 358 -210 624 -173 534 -250 739 -360
964 -160 325 -366 583 -573 715 -39 25 -71 47 -71 50 -1 3 45 30 102 59 477
249 879 592 1170 1000 37 52 71 100 75 108 7 11 14 11 48 -3 214 -91 405 -40
507 134 68 117 101 245 101 387 -1 113 -23 195 -76 277 -36 58 -135 151 -189
178 l-39 20 0 103 c-1 290 -74 716 -179 1033 -312 949 -987 1636 -1953 1988
l-48 18 0 73 c0 193 -127 377 -307 445 -76 29 -199 35 -273 15z m243 -168
c109 -50 174 -138 184 -249 5 -55 7 -58 40 -69 19 -6 32 -13 30 -15 -3 -3 -46
8 -96 23 -71 21 -91 32 -91 46 0 55 -57 135 -122 168 -41 21 -117 25 -151 8
-33 -17 -78 -61 -88 -87 -8 -20 -13 -22 -51 -16 -24 4 -45 8 -46 10 -10 8 28
82 60 119 82 93 211 117 331 62z m837 -8712 c116 -284 182 -393 259 -425 37
-15 57 -67 116 -303 61 -246 103 -331 180 -358 42 -15 45 -27 45 -163 0 -115
21 -284 46 -376 9 -30 31 -89 51 -131 l34 -75 -35 -60 c-49 -81 -109 -232
-135 -335 -30 -120 -42 -226 -40 -369 1 -118 -15 -256 -30 -273 -4 -4 -45 13
-92 39 -214 118 -341 240 -414 399 -68 145 -72 216 -44 775 41 824 32 1427
-27 1825 -4 22 -4 38 -1 35 3 -3 42 -95 87 -205z"/>
</g>
</svg>
