<?xml version="1.0" encoding="utf-8"?>
<!-- Generator: Adobe Illustrator 15.0.0, SVG Export Plug-In . SVG Version: 6.00 Build 0)  -->
<!DOCTYPE svg PUBLIC "-//W3C//DTD SVG 1.1//EN" "http://www.w3.org/Graphics/SVG/1.1/DTD/svg11.dtd">
<svg version="1.1"
	 id="Layer_1" image-rendering="optimizeQuality" text-rendering="geometricPrecision" shape-rendering="geometricPrecision"
	 xmlns="http://www.w3.org/2000/svg" xmlns:xlink="http://www.w3.org/1999/xlink" x="0px" y="0px" width="1024px" height="1024px"
	 viewBox="0 0 1024 1024" enable-background="new 0 0 1024 1024" xml:space="preserve">
<title>users_family icon</title>
<desc>users_family icon from the IconExperience.com O-Collection. Copyright by INCORS GmbH (www.incors.com).</desc>
<path id="curve2" fill="#dd8300" d="M512,865.3c0,43.5-96,60.7-160,60.7s-160-17.2-160-60.7c0-56.399,19.2-107.2,49.9-143.2
	C270.6,749.3,309.4,766,352,766s81.4-16.7,110.1-43.9C492.8,758.1,512,808.9,512,865.3z M352,478c70.7,0,128,57.3,128,128
	s-57.3,128-128,128s-128-57.3-128-128S281.3,478,352,478z"/>
<path id="curve1" fill="#4F4F4F" d="M704,158c106,0,192,85.6,192,191.2c0,105.6-86,191.2-192,191.2S512,454.8,512,349.2
	C512,243.6,598,158,704,158z M960,745.2C960,806,806.4,830,704,830c-50.9,0-114.4-5.9-165.5-19.4c-8.2-40-25.5-78.1-52.1-109.3
	l-3.2-3.7C501.3,671.7,512,640.1,512,606c0-12.8-1.5-25.3-4.4-37.3c14.801-19,31.9-35.8,50.801-49.9
	C597.6,552.2,648.4,572.4,704,572.4s106.4-20.2,145.6-53.601C916.3,568.5,960,651.4,960,745.2z"/>
<path id="curve0" fill="#4F4F4F" d="M288,30c106,0,192,85.6,192,191.2c0,105.6-86,191.2-192,191.2S96,326.8,96,221.2
	C96,115.6,182,30,288,30z M494.9,533.9C468.5,481.8,414.4,446,352,446c-88.4,0-160,71.6-160,160c0,34.1,10.7,65.7,28.8,91.6l-1,1.2
	C128.7,690.5,32,665.5,32,617.3c0-93.899,43.7-176.8,110.4-226.5c39.2,33.4,90,53.601,145.6,53.601c55.6,0,106.4-20.2,145.6-53.601
	c38.7,28.9,69.7,69,88.9,115.9C512.6,515.2,503.4,524.3,494.9,533.9z"/>
<title>add icon</title>
<desc>add icon from the IconExperience.com O-Collection. Copyright by INCORS GmbH (www.incors.com).</desc>
<circle fill="#FFFFFF" cx="829.924" cy="808.424" r="205.543"/>
<path id="curve0_1_" fill="#dd8300" d="M831.5,627c101.059,0,183,81.941,183,183s-81.941,183-183,183s-183-81.941-183-183
	S730.441,627,831.5,627z M713.857,770.785c-7.189,0-13.072,5.883-13.072,13.072v52.285c0,7.189,5.883,13.072,13.072,13.072h78.428
	v78.428c0,7.189,5.883,13.072,13.072,13.072h52.285c7.189,0,13.072-5.883,13.072-13.072v-78.428h78.428
	c7.189,0,13.072-5.883,13.072-13.072v-52.285c0-7.189-5.883-13.072-13.072-13.072h-78.428v-78.428
	c0-7.189-5.883-13.072-13.072-13.072h-52.285c-7.189,0-13.072,5.883-13.072,13.072v78.428H713.857z"/>
</svg>
